<?xml version="1.0" encoding="UTF-8"?>
<!-- Created with Inkscape (http://www.inkscape.org/) -->
<svg width="48" height="48" version="1.1" viewBox="0 0 48 48" xml:space="preserve" xmlns="http://www.w3.org/2000/svg"><g fill="#f9f9f9" stroke-width="1.5"><g transform="matrix(.62485 -.0057866 .0053563 .5784 -2.5768 17.012)"><path d="m3.805 37.186 5.8249-24.68h32.796l-3.9639 16.688-6.1546 0.0083 2.5067-10.675-20.368-0.06665-3.0241 12.738h18.353l-1.4199 6.0148z"/><path d="m30.41 37.276h6.1805l1.3863-6.0694h-6.152z"/></g><g transform="matrix(.62485 -.0057866 .0053563 .5784 21.423 -6.9883)"><path d="m3.805 37.186 5.8249-24.68h32.796l-3.9639 16.688-6.1546 0.0083 2.5067-10.675-20.368-0.06665-3.0241 12.738h18.353l-1.4199 6.0148z"/><path d="m30.41 37.276h6.1805l1.3863-6.0694h-6.152z"/></g></g></svg>
